<svg xmlns="http://www.w3.org/2000/svg" version="1.1" width="600px" height="600px" viewBox="0 0 200 200" style="overflow:hidden!important;"><g id="svga-group-wrapper"><g id="svga-group-backs-single"></g><g id="svga-group-humanwrap-move" transform="matrix(1,0,0,1,0,0)"><g id="svga-group-humanwrap"><g id="svga-group-hair-back-move" transform="matrix(0.9986295346632303,-0.05233595798588117,0.05233595798588117,0.9986295346632303,-7.189987584346397,5.425460945735864)"><g id="svga-group-hair-back"><path id="SvgjsPath12312" d="m121.3 38-1.3-9.1-4-3.7-10.7-5.7H75L60 31.9 44.7 44.2l-2 19.3-2.4 18 13.7 36-3 13.7-13.7 25 5 22 20.4 15.3 41.3-2.6L121.3 38z" fill="#a46c47" stroke-width="none" opacity="1"></path><path id="SvgjsPath12313" d="m118.6 34.8-16.5-6.2s-23.4.5-24.4.7c-.9.2-24.1 20.3-24.1 20.3l-4 36.9 5.7 22.2 5.2 20.1 11.3 13.9 6.6 7.8 4.7 11.1 3.6-25.8 16.6-75.4 13-20.3 2.3-5.3z" fill="#955932" stroke-width="none" opacity="1"></path><path id="SvgjsPath12314" d="m85.7 34.1-.7-2.9 12.3-3.9 14.1 2.3-.7 3.1-25 1.4z" fill="#000000" stroke-width="none" opacity="1"></path></g></g><g id="svga-group-humanbody-back"><path id="SvgjsPath12143" d="m168.2 200-4.6-14.2-34.9-13.4-10.8-9.7-1.4-50.5h-33l-1.4 50.5-10.8 9.7-34.9 13.4-4.6 14.2-3 20h142.4z" fill="#f3d4cf" stroke-width="none" opacity="1"></path><path id="SvgjsPath12144" d="m83.5 112.2-1.4 50.5-10.8 9.7-34.9 13.4-4.6 14.2-3 20H39v-20l1.7-13.3 32.1-12.9 14.1-9.5 2-52.1z" fill="#d4958a" stroke-width="none" opacity="1"></path></g><g id="svga-group-chinshadow-single"><path id="SvgjsPath12139" d="m117.5 151.4-1.1-39.3H83.5l-1.2 44.3c3.4 1.7 11 5.4 14.9 5.4 5.2 0 16.6-6.3 16.6-6.3 1.3-1.2 2.5-2.6 3.7-4.1z" fill="#c5796d" stroke-width="none" opacity="1"></path></g><g id="svga-group-humanbody-front"></g><g id="svga-group-clothes-single"><path id="SvgjsPath12395" d="m100 211.8-21.1-19.4 2.6 27.6h37l2.6-27.6z" fill="#ededed" stroke-width="none" opacity="1"></path><path id="SvgjsPath12396" d="m82.2 159.1-4.2 3.8-14.9 9.2.5.5-26 11.2-3 .7-4.2 15.6-2.8 19.9h56.5l-4.8-53.4 2.8-3.9z" fill="#676767" stroke-width="none" opacity="1" stroke="none"></path><path id="SvgjsPath12397" d="m117.8 159.1 4.2 3.8 14.9 9.2-.5.5 26 11.2 3 .7 4.2 15.6 2.8 19.9h-56.5l4.8-53.4-2.8-3.9z" fill="#676767" stroke-width="none" opacity="1" stroke="none"></path><path id="SvgjsPath12398" d="m63.1 172.1.5.5-26 11.2-3 .7-4.2 15.6-2.8 19.9H33l1.1-19.6 2.1-11.6 1.8-.4 41.3-19 .1-2.7 2.8-3.9.1-3.6-4.2 3.7-15 9.2zm73.8 0-.5.5 26 11.2 3 .7 4.2 15.6 2.8 19.9H167l-1.1-19.6-2.1-11.6-1.8-.4-41.3-19-.1-2.7-2.8-3.9-.1-3.6 4.2 3.7 15 9.2z" fill="#585858" stroke-width="none" opacity="1" stroke="none"></path><path id="SvgjsPath12399" d="m74.4 171.6-9.9 10.9 8.4 37.6h-1.6l-8.8-37.6 7.2-6.9-6.2-3 6.9 1.9 4-2.9zm7.8-12.5-5 8.6 6.5 52.3h.4l-4.8-53.4 2.8-3.9.1-3.6zm-38.5 40-7.1-13.8 6 15.4 2.3 19.3h1.9l-3.1-20.9zm81.9-27.5 9.9 10.9-8.4 37.6h1.6l8.8-37.6-7.2-6.9 6.2-3-6.9 1.9-4-2.9zm-7.8-12.5 5 8.6-6.5 52.3h-.4l4.8-53.4-2.8-3.9-.1-3.6zm38.5 40 7.1-13.8-6 15.4-2.3 19.3h-1.9l3.1-20.9z" fill="#484848" stroke-width="none" opacity="1" stroke="none"></path><path id="SvgjsPath12400" d="m73.7 173.4-8.2 9.4 8.5 36.6-5.9-36.6 5.6-9.4zm52.6 0 8.2 9.4-8.5 36.6 5.9-36.6-5.6-9.4z" fill="#767676" stroke-width="none" opacity="1" stroke="none"></path></g><g id="svga-group-head" transform="matrix(0.9986295346632303,-0.05233595798588117,0.05233595798588117,0.9986295346632303,-7.189987584346397,5.425460945735864)"><g id="svga-group-ears-left-move" transform="matrix(1,0,0,1,0,0)"><g id="svga-group-ears-left"><path id="SvgjsPath12093" d="M61.9 93s-5.5-3-7.7-3.9c0 0-3.9 5.4-5.1 7.2 0 0 3.1 14.7 3.9 17.3l5 6.5 5.4-1.7 4.2-14.2L61.9 93z" fill="#f3d4cf" stroke-width="none" opacity="1"></path><path id="SvgjsPath12094" d="M59.8 104.7c-.2-.4-6-10-6-10l-2.3 7.9 2.6-2.4 1.6 2.9s-.3 5-.2 5.5c0 .5 2.4 4.3 2.4 4.3l1.9-8.2z" fill="#d4958a" stroke-width="none" opacity="1"></path><path id="SvgjsPath12095" d="m59.4 98-5.2-8.9c2.2.9 7.7 1.8 7.7 1.8l5.7 13.3-4.2 14.2-5.4 1.7 3.6-3.4L59.4 98z" fill="#e4b3ab" stroke-width="none" opacity="1"></path></g></g><g id="svga-group-ears-right-move" transform="matrix(1,0,0,1,0,0)"><g id="svga-group-ears-right"><path id="SvgjsPath12096" d="M138.1 93s5.5-3 7.7-3.9c0 0 3.9 5.4 5.1 7.2 0 0-3.1 14.7-3.9 17.3l-5 6.5-5.4-1.7-4.2-14.2 5.7-11.2z" fill="#f3d4cf" stroke-width="none" opacity="1"></path><path id="SvgjsPath12097" d="M140.2 104.7c.2-.4 6-10 6-10l2.3 7.9-2.6-2.4-1.6 2.9s.3 5 .2 5.5c0 .5-2.4 4.3-2.4 4.3l-1.9-8.2z" fill="#d4958a" stroke-width="none" opacity="1"></path><path id="SvgjsPath12098" d="m140.6 98 5.2-8.9c-2.2.9-7.7 1.8-7.7 1.8l-5.7 13.3 4.2 14.2 5.37 1.68-3.57-3.38 2.2-18.7z" fill="#e4b3ab" stroke-width="none" opacity="1"></path></g></g><g id="svga-group-faceshape-wrap"><g id="svga-group-faceshape-single"><path id="SvgjsPath12125" d="M136.8 61c-6.7-11.2-19-18.9-19-18.9-7-1.5-17.8-2.2-17.8-2.2s-10.8.8-17.8 2.2c0 0-12.4 7.6-19 18.9 0 0-5 14-5.2 23.9 0 0 2.6 23.7 5.8 34 0 0 9.9 19.8 19.6 29.7 0 0 11.5 6.3 16.6 6.3s16.6-6.3 16.6-6.3c9.7-9.9 19.6-29.7 19.6-29.7 3.1-10.3 5.8-34 5.8-34-.3-9.8-5.2-23.9-5.2-23.9z" fill="#f3d4cf" stroke-width="none" opacity="1"></path><path id="SvgjsPath12126" d="m85.8 45.6 28.8-.8L136.8 61c-6.7-11.2-19-18.9-19-18.9-7-1.5-17.8-2.2-17.8-2.2s-10.8.8-17.8 2.2c0 0-12.4 7.6-19 18.9 0 0-5 14-5.2 23.9 0 0 2.6 23.7 5.8 34 0 0 9.9 19.8 19.6 29.7 0 0 11.5 6.3 16.6 6.3-4.1-.5-15.3-8.6-15.3-8.6-3.3-4.7-15.2-28-15.2-28-2.5-6.4-6.6-34.9-6.6-34.9.3-3.3 4.4-20.5 4.4-21.3s18.5-16.5 18.5-16.5z" fill="#d4958a" stroke-width="none" opacity="1"></path></g></g><g id="svga-group-mouth-single-move" transform="matrix(1,0,0,1,0,0)"><g id="svga-group-mouth-single"><path id="SvgjsPath12080" d="m81.97 124.18 12.58 12.94 13.37.22 10.62-12.51-17.89 1.82-.29.51-.43-.65z" fill="#da7c87" stroke-width="none" opacity="1" transform="translate(0 3)"></path><path id="SvgjsPath12081" d="m83.13 125.04 10.12 9.44 14.22.32 10.07-9.34-16.81 3.98z" fill="#000000" stroke-width="none" opacity="1" transform="translate(0 3)"></path><path id="SvgjsPath12082" d="m83.13 125.04 5.32 4.96 12.26 2.26s7.19-.9 11.47-1.84l5.35-4.96-16.82 3.98-17.58-4.4z" fill="#ffffff" stroke-width="none" opacity="1" transform="translate(0 3)"></path></g></g><g id="svga-group-eyes-left-move" transform="matrix(1,0,0,1,0,0)"><g id="svga-group-eyes-left"><g id="svga-group-eyesback-left"><path id="SvgjsPath12215" d="m91.9 100.1-5.1-4.5-8.8.1-6.8 3.8s5.7 4.2 7 4.8l8.6-.4 5.1-3.8z" fill="#ffffff" stroke-width="none" opacity="1"></path></g><g id="svga-group-eyesiriswrapper-left" transform="matrix(1,0,0,1,0,0)"><g id="svga-group-eyesiriscontrol-left" transform="matrix(1,0,0,1,0,0)"><g id="svga-group-eyesiris-left"><path id="SvgjsPath12159" d="m76.94 100.14 1.64-4.45 4.68-.81 3.03 3.65-1.64 4.45-4.68.81z" fill="#000000" stroke-width="none" opacity="1"></path><path id="SvgjsPath12160" d="m83.07 95.39 2.69 3.23-1.45 3.94-4.14.71-2.69-3.23 1.45-3.94 4.14-.71m.38-1.02-5.21.9-1.83 4.96 3.38 4.07 5.21-.9 1.83-4.96-3.38-4.07z" fill="#66724e" stroke-width="none" opacity="1"></path><path id="SvgjsPath12161" d="m83.26 94.88-4.68.81-1.64 4.45 4.68-.79z" fill="#1e1e1e" stroke-width="none" opacity="1"></path><path id="SvgjsPath12162" d="m77.48 100.05 1.45-3.95 4.14-.71.38-1.02-5.22.9-1.83 4.96 1.08-.18z" fill="#788165" stroke-width="none" opacity="1"></path><path id="SvgjsPath12163" d="m79.15 98.13.46-1.21 1.28-.21-.38 1.29z" fill="#2b2b2b" stroke-width="none" opacity="1"></path></g></g></g><g id="svga-group-eyesfront-left"><path id="SvgjsPath12223" d="M67.97 94.46v11.11l7.69 7.86h10.87l7.69-7.86V94.46l-7.69-7.86H75.66l-7.69 7.86zm3.25 4.89 6.84-3.78 8.83-.05 5.05 4.54-5.05 3.78-8.62.36c-1.34-.66-7.05-4.85-7.05-4.85z" fill="#f3d4cf" stroke-width="none" opacity="1"></path><path id="SvgjsPath12224" d="m91.94 100.07-5.06-4.54-8.82.05-6.84 3.77-1.53.02-1.72-.76 3.63-.89 6.18-3.06 9.49.07 4.08 3.94z" fill="#d4958a" stroke-width="none" opacity="1"></path><path id="SvgjsPath12225" d="m72.17 100.51-1.61-1.16-1.86-1.34 2.64.92 1.57-.84a24 24 0 0 0-.61-.22l-1.15-1.38 1.95.99.63.16 1.62-.87-.64-.36-.73-1.15 1.38.99.6.19 1.37-.74-.55-.33-.46-.77.84.65.6.21.09-.05 9.11-.19 4.98 4.83-5.24-4.2h-8.66l-6.38 3.66 6.6 4.67 8.52-.52 3.96-2.69-3.77 3.08-8.76.39-.54-.35-.81.76.21-.42.39-.47-1-.65-.45.32-.71.54.35-.52.6-.49-.99-.64-.85.48-.89.64.66-.79.75-.53-1.12-.73-1.01.47-.85.5.58-.71.89-.5-.86-.56-.04-.03-.75.2-1.33.6.89-.71.84-.34z" fill="#000000" stroke-width="none" opacity="1"></path></g></g></g><g id="svga-group-eyes-right-move" transform="matrix(1,0,0,1,0,0)"><g id="svga-group-eyes-right"><g id="svga-group-eyesback-right"><path id="SvgjsPath12216" d="m108.1 100.1 5.1-4.5 8.8.1 6.8 3.8s-5.7 4.2-7 4.8l-8.6-.4-5.1-3.8z" fill="#ffffff" stroke-width="none" opacity="1"></path></g><g id="svga-group-eyesiriswrapper-right" transform="matrix(1,0,0,1,0,0)"><g id="svga-group-eyesiriscontrol-right" transform="matrix(1,0,0,1,0,0)"><g id="svga-group-eyesiris-right"><path id="SvgjsPath12164" d="m113.71 100.14 1.64-4.45 4.68-.81 3.03 3.65-1.64 4.45-4.68.81z" fill="#000000" stroke-width="none" opacity="1"></path><path id="SvgjsPath12165" d="m119.84 95.39 2.69 3.23-1.45 3.94-4.14.71-2.69-3.23 1.45-3.94 4.14-.71m.37-1.02-5.21.9-1.83 4.96 3.38 4.07 5.21-.9 1.83-4.96-3.38-4.07z" fill="#66724e" stroke-width="none" opacity="1"></path><path id="SvgjsPath12166" d="m120.03 94.88-4.68.81-1.64 4.45 4.67-.79z" fill="#1e1e1e" stroke-width="none" opacity="1"></path><path id="SvgjsPath12167" d="m114.24 100.05 1.46-3.95 4.14-.71.37-1.02-5.21.9-1.83 4.96 1.08-.18z" fill="#788165" stroke-width="none" opacity="1"></path><path id="SvgjsPath12168" d="m115.92 98.13.46-1.21 1.27-.21-.37 1.29z" fill="#2b2b2b" stroke-width="none" opacity="1"></path></g></g></g><g id="svga-group-eyesfront-right"><path id="SvgjsPath12226" d="M124.34 86.6h-10.87l-7.69 7.86v11.11l7.69 7.86h10.87l7.69-7.86V94.46l-7.69-7.86zm-2.6 17.6-8.62-.36-5.05-3.78 5.05-4.54 8.83.05 6.84 3.78c-.01 0-5.72 4.19-7.05 4.85z" fill="#f3d4cf" stroke-width="none" opacity="1"></path><path id="SvgjsPath12229" d="m108.06 100.07 5.06-4.54 8.82.05 6.84 3.77 1.53.02 1.72-.76-3.63-.89-6.18-3.06-9.49.07-4.08 3.94z" fill="#d4958a" stroke-width="none" opacity="1"></path><path id="SvgjsPath12230" d="m127.83 100.51 1.61-1.16 1.86-1.34-2.64.92-1.57-.84a24 24 0 0 1 .61-.22l1.15-1.38-1.95.99-.63.16-1.62-.87.64-.36.73-1.15-1.38.99-.6.19-1.37-.74.55-.33.46-.77-.84.65-.6.21-.09-.05-9.11-.19-4.98 4.83 5.24-4.2h8.66l6.38 3.66-6.6 4.67-8.52-.52-3.96-2.69 3.77 3.08 8.76.39.54-.35.81.76-.21-.42-.39-.47 1-.65.45.32.71.54-.35-.52-.6-.49.99-.64.86.46.89.64-.66-.79-.75-.53 1.12-.73 1.01.47.85.5-.58-.71-.89-.5.86-.56.04-.03.75.2 1.33.6-.89-.71-.85-.32z" fill="#000000" stroke-width="none" opacity="1"></path></g></g></g><g id="svga-group-facehighlight-single"></g><g id="svga-group-eyebrows-left-move" transform="matrix(1,0,0,1,0,0)"><g id="svga-group-eyebrows-left-rotate" transform="matrix(0.9825664732332883,-0.18591160716291474,0.18591160716291474,0.9825664732332883,-14.946076039727757,16.41463097444381)"><g id="svga-group-eyebrows-left"><path id="SvgjsPath12270" d="m93.2 89.1-.6 1.9-2.1 1.2-11.6-5.5-7.1-.1-4.9 3.1 4.3-4.7 7.5-1.4 9.1 2.7z" fill="#a46c47" stroke-width="none" opacity="1"></path><path id="SvgjsPath12271" d="m90 87.5.8.4-.4 2.5-.4-2.9zm-5.5-2.2 1.4 2.4-1.9-2.5.5.1zm3.3 1 .3.2c.2 1.3.5 3.4.5 3.4l-1.4-3.7.6.1zm-5.6-1.6.7 1.3-2-1.7 1.3.4zM71 86.3c-.1 0 0 0 0 0zm-1.7.7c.7-.3 1.3-.6 1.6-.7-.3.2-1.4 1-2.5 1.7l.9-1zm6-2.7 1.6 1.6-2.1-1.5.5-.1zm-4.1.7 1.5-.3 2.3.7c0 .1-2.2-.2-3.8-.4z" fill="#b38160" stroke-width="none" opacity="1"></path></g></g></g><g id="svga-group-eyebrows-right-move" transform="matrix(1,0,0,1,0,0)"><g id="svga-group-eyebrows-right-rotate" transform="matrix(0.9825664660947944,0.18591164489075823,-0.18591164489075823,0.9825664660947944,18.432785499106146,-20.76769364692376)"><g id="svga-group-eyebrows-right"><path id="SvgjsPath12272" d="m106.8 89.1.6 1.9 2.1 1.2 11.6-5.5 7.1-.1 4.9 3.1-4.3-4.7-7.5-1.4-9.1 2.7z" fill="#a46c47" stroke-width="none" opacity="1"></path><path id="SvgjsPath12273" d="m110 87.5-.8.4.4 2.5.4-2.9zm5.5-2.2-1.4 2.4 1.9-2.5-.5.1zm-3.3 1-.3.2c-.2 1.3-.5 3.4-.5 3.4l1.4-3.7-.6.1zm5.6-1.6-.7 1.3 2-1.7-1.3.4zm11.2 1.6c.1 0 0 0 0 0zm1.7.7c-.7-.3-1.4-.6-1.6-.7.3.2 1.4 1 2.5 1.7l-.9-1zm-6-2.7-1.6 1.6 2.1-1.5-.5-.1zm4.1.7-1.5-.3-2.3.7c0 .1 2.2-.2 3.8-.4z" fill="#b38160" stroke-width="none" opacity="1"></path></g></g></g><g id="svga-group-nose-single-move" transform="matrix(1,0,0,1,0,0)"><g id="svga-group-nose-single"><path id="SvgjsPath12259" d="m104.26 110.12-1.71-13.72.96 12.74-.75-.19 5.77 8.81-2.05 1.51-1.13-1.32.25-1.17-4.51 3.91h-2.1l-4.51-3.91.25 1.17-1.13 1.32-2.04-1.51 5.76-8.81-.75.19 1.17-19.97-1.92 20.95-5.1 7.73 3.34 2.45 1.26-1.76 3.67 3.42h2.1l3.68-3.42 1.25 1.76 3.34-2.45z" fill="#d4958a" stroke-width="none" opacity="1" transform="translate(0 2)"></path><path id="SvgjsPath12260" d="m96.64 116.02 2.07 1.27 2.71.06 2.24-1.02-.27-1.54-3.14-.53-3.45.59z" fill="#fbe5e2" stroke-width="none" opacity="1" transform="translate(0 2)"></path></g></g><g id="svga-group-hair-front"><path id="SvgjsPath12309" d="M61.5 99.7 57 88.8l.2-12.4 1.1-.9 1.8-10.8 1.2-1.1 1.7-8.2 1.8-1.3 2.3-7.1 8-9.8 5.4-2.3 2.5-1.5 3.4-.3 1.1-1.5 13.7-2 1 1.1 9.6.1 3.1 2.4 7.8 1.8 9.3 8.4 4.6 10.7 2.2 2.6.7 3.2 2.2 2 .5 10.9 1.8 1.8v10.3l-.5 3.6-3.5 7.9-3.1-14.7-4-8.4-2.1-6.3-2.6-3.3-3.2-4.2-5.5.4-2.9-1.5-9.4 3.8-11.1-.2-9.3-3.3-6.3 2.3-3.6-1.4-3.4 5.3-3.7 4.2-2.3 6.1-3.1 6.8-2.9 17.7z" fill="#ac7653" stroke-width="none" opacity="1"></path><path id="SvgjsPath12310" d="m96.1 62-7.6-10.7-1.2-12.7 1.9-6-4.4 5.4-.2 13.7 2.1 6.9 9.4 3.4zm-15.6-1s-4.3-11.7-4.3-12.2 3.7-11.6 3.7-11.6l3.1-3.7-5.9 3.9-4.2 14.1s3.4 7.7 4.1 8.2c.6.3 3.5 1.3 3.5 1.3zm-7 3.9-6.1-11-.3-6.9-2.3 7.2 2.1 9.2 3 5.7 3.6-4.2zm-12.2-1.3 2 9.3 2.6 6.5-1.8 5.1-6-9 1.8-10.8 1.4-1.1zm45.9-1.4c0-1.1 1.7-17.3 1.7-17.3L105 34.3l-2.9-3.6 5.5 3.4 5.3 11.6-.2 9-2.1 6.3-3.4 1.2zm12.3-2.3c.6-1.1 2-12.2 2-12.9s-3.9-10.6-3.9-10.6l-2.7-3.2 6.4 4.8 5.8 12.3-2.1 9.1-5.5.5zm11.3 7.1 3-12.6-1.8-11 4.6 10.8-1.6 9.6-4.2 3.2zm6.1 14.7 3.4-11.8 1.3-8 .5 10.9-3.1 8.1-2.1.8zm3.1 14.7s1.9-9.8 2.1-11.4 1.9-10.5 1.9-10.5v10.3s-.2 2.8-.5 3.6c-.4.9-3.5 8-3.5 8zm-78.5 3.3L57 88.8l.5-8.2 4 19.1zm4.8 99.8 9.1-12.3-.8-9.9 2.3-11.7-10.2-17.3-15.8-17-9.6 25.1s5.9 19 7.2 19.3S63 188.8 63 189.6s3.3 9.9 3.3 9.9z" fill="#a46c47" stroke-width="none" opacity="1"></path><path id="SvgjsPath12311" d="M93.4 27.2 75 19.5 44.7 44.2l-4.3 37.3 5.1 12.1L43 77.8l6.2-32.2L75.7 24l17.7 3.2zM51 131.2l-13.7 25 5 22 15.4 11.6 2.7 9.4-2.7 8.3 8.6-8 5.1-10.2-.8-7.5-22-12.6-4-15.3 6.4-22.7zm3.1 9.4-3 13.7 3 14 20.5 9-16.1-12.6-4.4-12.2v-11.9zM93.4 20.1l11.1 2.8 1.3 4.5-3.4-3.4-9-3.9z" fill="#b38160" stroke-width="none" opacity="1"></path></g><g id="svga-group-glasses-single-move" transform="matrix(1,0,0,1,0,0)"><g id="svga-group-glasses-single"></g></g></g></g></g><rect id="svga-credit-rect" width="200" height="15" x="0" y="185" fill="#ecf0f1" opacity="0.5" style="display: none;"></rect><text id="svga-credit-text" font-family="Avenir Next, Roboto, Helvetica, Arial, sans-serif" font-size="10px" text-anchor="start" font-weight="400" size="10px" anchor="start" weight="400" fill="#333333" x="33.40447998046875" y="182.60824704170227" style="display: none;"><tspan id="SvgjsTspan12074" dy="13" x="33.40447998046875">Created on AvatarMaker.com</tspan></text></g><defs id="SvgjsDefs12026"></defs></svg>